<svg width="47" height="46" viewBox="0 0 47 46" fill="none" xmlns="http://www.w3.org/2000/svg">
<g clip-path="url(#clip0_1_161)">
<path opacity="0.7" fill-rule="evenodd" clip-rule="evenodd" d="M0.855949 10.2788C0.855949 4.98695 5.14584 0.69706 10.4377 0.69706H36.4453C41.7372 0.69706 46.0271 4.98695 46.0271 10.2788V36.2864C46.0271 41.5783 41.7372 45.8682 36.4453 45.8682H10.4377C5.14584 45.8682 0.855949 41.5783 0.855949 36.2864V10.2788Z" fill="white"/>
<path fill-rule="evenodd" clip-rule="evenodd" d="M23.4415 10.9632C16.6385 10.9632 11.1221 16.4796 11.1221 23.2826C11.1221 30.0857 16.6385 35.602 23.4415 35.602C30.2445 35.602 35.7609 30.0857 35.7609 23.2826C35.7609 16.4796 30.2445 10.9632 23.4415 10.9632Z" fill="#930FFC"/>
<path d="M24.5229 14.3853H22.3601V19.7647H19.6772L23.4415 24.0628L26.6719 19.7647H24.5229V14.3853Z" fill="white"/>
<path d="M30.97 28.3609V21.9138H28.821V26.2119H18.062V21.9138H15.913V28.3609H30.97Z" fill="white"/>
</g>
<defs>
<clipPath id="clip0_1_161">
<rect width="45.1711" height="45.1711" fill="white" transform="translate(0.856384 0.697124)"/>
</clipPath>
</defs>
</svg>
