<svg width="27" height="22" viewBox="0 0 27 22" fill="none" xmlns="http://www.w3.org/2000/svg">
<path d="M19.4986 16.5795L19.8787 16.0103L19.2851 15.614L18.914 16.2236L19.4986 16.5795ZM24.1937 19.7141L23.8137 20.2833L24.3843 20.6643L24.7639 20.0927L24.1937 19.7141ZM25.3298 18.0031L25.9 18.3817L26.2774 17.8133L25.7102 17.4341L25.3298 18.0031ZM20.4157 14.7179L19.7723 14.4846L19.5895 14.9888L20.0354 15.2869L20.4157 14.7179ZM20.2241 7.46314L20.8546 7.19692L20.8539 7.19529L20.2241 7.46314ZM14.9405 2.17949L15.2083 1.54967L15.2067 1.54898L14.9405 2.17949ZM7.22031 2.17949L6.95409 1.54897L6.95246 1.54967L7.22031 2.17949ZM1.93666 7.46314L1.30684 7.19528L1.30615 7.19692L1.93666 7.46314ZM1.93666 15.1833L1.30615 15.4495L1.30684 15.4511L1.93666 15.1833ZM7.22031 20.4669L6.95246 21.0968L6.95409 21.0975L7.22031 20.4669ZM14.9405 20.4669L15.2067 21.0975L15.2083 21.0968L14.9405 20.4669ZM19.1186 17.1487L23.8137 20.2833L24.5737 19.1449L19.8787 16.0103L19.1186 17.1487ZM24.7639 20.0927L25.9 18.3817L24.7597 17.6245L23.6235 19.3355L24.7639 20.0927ZM25.7102 17.4341L20.7961 14.1489L20.0354 15.2869L24.9494 18.572L25.7102 17.4341ZM21.0592 14.9511C21.4841 13.7788 21.6888 12.5773 21.6888 11.3232H20.3199C20.3199 12.4235 20.1413 13.4668 19.7723 14.4846L21.0592 14.9511ZM21.6888 11.3232C21.6888 9.89062 21.4105 8.51338 20.8546 7.19692L19.5936 7.72936C20.0781 8.87678 20.3199 10.0729 20.3199 11.3232H21.6888ZM20.8539 7.19529C20.3147 5.92738 19.5683 4.79911 18.5864 3.81721L17.6185 4.78511C18.4708 5.63744 19.1206 6.61715 19.5943 7.73099L20.8539 7.19529ZM18.5864 3.81721C17.6045 2.83531 16.4762 2.0889 15.2083 1.54967L14.6726 2.80931C15.7865 3.28301 16.7662 3.93279 17.6185 4.78511L18.5864 3.81721ZM15.2067 1.54898C13.8902 0.993139 12.513 0.714851 11.0804 0.714851V2.08367C12.3307 2.08367 13.5268 2.32554 14.6742 2.81L15.2067 1.54898ZM11.0804 0.714851C9.64779 0.714851 8.27055 0.993139 6.95409 1.54898L7.48653 2.81C8.63395 2.32554 9.8301 2.08367 11.0804 2.08367V0.714851ZM6.95246 1.54967C5.68455 2.0889 4.55628 2.83531 3.57438 3.81721L4.54229 4.78511C5.39461 3.93279 6.37432 3.28301 7.48817 2.80931L6.95246 1.54967ZM3.57438 3.81721C2.59248 4.79911 1.84607 5.92738 1.30684 7.19529L2.56648 7.73099C3.04018 6.61715 3.68996 5.63744 4.54229 4.78511L3.57438 3.81721ZM1.30615 7.19692C0.75031 8.51338 0.472022 9.89062 0.472022 11.3232H1.84084C1.84084 10.0729 2.08271 8.87678 2.56717 7.72936L1.30615 7.19692ZM0.472022 11.3232C0.472022 12.7558 0.75031 14.133 1.30615 15.4495L2.56717 14.9171C2.08271 13.7697 1.84084 12.5735 1.84084 11.3232H0.472022ZM1.30684 15.4511C1.84607 16.7191 2.59248 17.8473 3.57438 18.8292L4.54229 17.8613C3.68996 17.009 3.04018 16.0293 2.56648 14.9154L1.30684 15.4511ZM3.57438 18.8292C4.55628 19.8111 5.68455 20.5575 6.95246 21.0968L7.48817 19.8371C6.37432 19.3634 5.39461 18.7136 4.54229 17.8613L3.57438 18.8292ZM6.95409 21.0975C8.27055 21.6533 9.64779 21.9316 11.0804 21.9316V20.5628C9.8301 20.5628 8.63395 20.3209 7.48653 19.8364L6.95409 21.0975ZM11.0804 21.9316C12.513 21.9316 13.8902 21.6533 15.2067 21.0975L14.6742 19.8364C13.5268 20.3209 12.3307 20.5628 11.0804 20.5628V21.9316ZM15.2083 21.0968C16.4762 20.5575 17.6045 19.8111 18.5864 18.8292L17.6185 17.8613C16.7662 18.7136 15.7865 19.3634 14.6726 19.8371L15.2083 21.0968ZM18.5864 18.8292C19.1705 18.2451 19.6703 17.6138 20.0833 16.9353L18.914 16.2236C18.5605 16.8044 18.1294 17.3504 17.6185 17.8613L18.5864 18.8292Z" fill="#930FFC"/>
</svg>
